<?xml version="1.0" encoding="UTF-8"?>
<svg id="Layer_1" xmlns="http://www.w3.org/2000/svg" version="1.1" viewBox="0 0 225 50">
  <!-- Generator: Adobe Illustrator 29.3.1, SVG Export Plug-In . SVG Version: 2.1.0 Build 151)  -->
  <defs>
    <style>
      .st0 {
        fill: #a3cd49;
      }

      .st1 {
        fill: #ac1e22;
      }

      .st2 {
        fill: #263a66;
      }

      .st3 {
        fill: #ac1e22;
      }

      .st4 {
        fill: #faf6ae;
      }
    </style>
  </defs>
  <g>
    <path class="st2" d="M80.79,23.77v4h-16.7V6.21h16.3v4h-11.34v4.68h10.01v3.88h-10.01v4.99h11.74Z"/>
    <path class="st2" d="M100.45,20.84h-12.54c.23,1.03.76,1.84,1.6,2.43.84.6,1.89.89,3.14.89.86,0,1.63-.13,2.29-.39.67-.26,1.29-.66,1.86-1.22l2.56,2.77c-1.56,1.79-3.84,2.68-6.84,2.68-1.87,0-3.52-.36-4.96-1.09-1.44-.73-2.55-1.74-3.33-3.03-.78-1.29-1.17-2.76-1.17-4.41s.39-3.09,1.16-4.39c.77-1.3,1.83-2.32,3.17-3.05,1.34-.73,2.85-1.09,4.51-1.09s3.09.35,4.41,1.05c1.31.7,2.35,1.7,3.1,3,.75,1.3,1.12,2.82,1.12,4.54,0,.06-.03.49-.09,1.29ZM89.2,15.52c-.74.62-1.19,1.46-1.36,2.53h8.16c-.16-1.05-.62-1.88-1.36-2.51-.74-.63-1.64-.94-2.71-.94s-2,.31-2.74.92Z"/>
    <path class="st2" d="M105.28,27.51c-1.31-.34-2.36-.76-3.14-1.28l1.6-3.45c.74.47,1.63.86,2.68,1.15,1.05.3,2.07.45,3.08.45,2.03,0,3.05-.5,3.05-1.51,0-.47-.28-.81-.83-1.02-.55-.2-1.41-.38-2.56-.52-1.36-.21-2.48-.44-3.36-.71-.88-.27-1.65-.74-2.29-1.42s-.97-1.64-.97-2.9c0-1.05.3-1.98.91-2.79.61-.81,1.49-1.44,2.65-1.89,1.16-.45,2.53-.68,4.11-.68,1.17,0,2.34.13,3.5.38,1.16.26,2.12.61,2.88,1.06l-1.6,3.42c-1.46-.82-3.05-1.23-4.77-1.23-1.03,0-1.8.14-2.31.43-.51.29-.77.66-.77,1.11,0,.51.28.87.83,1.08.55.21,1.44.4,2.65.59,1.36.23,2.46.47,3.33.72.86.26,1.61.72,2.25,1.4.64.68.95,1.62.95,2.83,0,1.03-.31,1.94-.92,2.74-.62.8-1.51,1.42-2.7,1.86-1.18.44-2.58.66-4.2.66-1.38,0-2.72-.17-4.04-.51Z"/>
    <path class="st2" d="M132.7,12.79c1.38,1.22,2.06,3.07,2.06,5.53v9.46h-4.5v-2.06c-.9,1.54-2.59,2.31-5.05,2.31-1.27,0-2.38-.22-3.31-.65-.93-.43-1.65-1.03-2.14-1.79-.49-.76-.74-1.62-.74-2.59,0-1.54.58-2.75,1.74-3.64,1.16-.88,2.95-1.32,5.38-1.32h3.82c0-1.05-.32-1.85-.95-2.42-.64-.56-1.59-.85-2.86-.85-.88,0-1.75.14-2.6.42-.85.28-1.58.65-2.17,1.12l-1.73-3.36c.9-.64,1.99-1.13,3.25-1.48,1.26-.35,2.56-.52,3.9-.52,2.57,0,4.54.61,5.91,1.83ZM128.6,24.22c.64-.38,1.09-.94,1.36-1.68v-1.69h-3.3c-1.97,0-2.96.65-2.96,1.94,0,.62.24,1.1.72,1.46.48.36,1.14.54,1.99.54s1.55-.19,2.19-.57Z"/>
    <path class="st2" d="M155.25,11.2l-6.99,16.57h-4.96l-6.96-16.57h4.96l4.59,11.27,4.74-11.27h4.62Z"/>
    <path class="st2" d="M173.27,11.2l-7.49,17.59c-.76,1.91-1.7,3.25-2.82,4.04-1.12.78-2.47,1.17-4.05,1.17-.86,0-1.72-.13-2.56-.4-.84-.27-1.53-.64-2.06-1.11l1.76-3.42c.37.33.8.59,1.28.77s.96.28,1.43.28c.66,0,1.19-.16,1.6-.48.41-.32.78-.85,1.11-1.59l.06-.15-7.18-16.7h4.96l4.65,11.24,4.68-11.24h4.62Z"/>
    <path class="st2" d="M187.29,12.79c1.38,1.22,2.06,3.07,2.06,5.53v9.46h-4.5v-2.06c-.9,1.54-2.59,2.31-5.05,2.31-1.27,0-2.38-.22-3.31-.65-.93-.43-1.65-1.03-2.14-1.79-.49-.76-.74-1.62-.74-2.59,0-1.54.58-2.75,1.74-3.64,1.16-.88,2.95-1.32,5.38-1.32h3.82c0-1.05-.32-1.85-.95-2.42-.64-.56-1.59-.85-2.86-.85-.88,0-1.75.14-2.6.42-.85.28-1.58.65-2.17,1.12l-1.73-3.36c.9-.64,1.99-1.13,3.25-1.48,1.26-.35,2.56-.52,3.9-.52,2.57,0,4.54.61,5.91,1.83ZM183.19,24.22c.64-.38,1.09-.94,1.36-1.68v-1.69h-3.3c-1.97,0-2.96.65-2.96,1.94,0,.62.24,1.1.72,1.46.48.36,1.14.54,1.99.54s1.55-.19,2.19-.57Z"/>
    <path class="st2" d="M195.23,27.51c-1.31-.34-2.36-.76-3.14-1.28l1.6-3.45c.74.47,1.63.86,2.68,1.15,1.05.3,2.07.45,3.08.45,2.03,0,3.05-.5,3.05-1.51,0-.47-.28-.81-.83-1.02-.55-.2-1.41-.38-2.56-.52-1.36-.21-2.48-.44-3.36-.71-.88-.27-1.65-.74-2.29-1.42s-.97-1.64-.97-2.9c0-1.05.3-1.98.91-2.79.61-.81,1.49-1.44,2.65-1.89,1.16-.45,2.53-.68,4.11-.68,1.17,0,2.34.13,3.5.38,1.16.26,2.12.61,2.88,1.06l-1.6,3.42c-1.46-.82-3.05-1.23-4.77-1.23-1.03,0-1.8.14-2.31.43-.51.29-.77.66-.77,1.11,0,.51.28.87.83,1.08.55.21,1.44.4,2.65.59,1.36.23,2.46.47,3.33.72.86.26,1.61.72,2.25,1.4.64.68.95,1.62.95,2.83,0,1.03-.31,1.94-.92,2.74-.62.8-1.51,1.42-2.7,1.86-1.18.44-2.58.66-4.2.66-1.38,0-2.72-.17-4.04-.51Z"/>
    <path class="st2" d="M222.65,12.79c1.38,1.22,2.06,3.07,2.06,5.53v9.46h-4.5v-2.06c-.9,1.54-2.59,2.31-5.05,2.31-1.27,0-2.38-.22-3.31-.65-.93-.43-1.65-1.03-2.14-1.79-.49-.76-.74-1.62-.74-2.59,0-1.54.58-2.75,1.74-3.64,1.16-.88,2.95-1.32,5.38-1.32h3.82c0-1.05-.32-1.85-.95-2.42-.64-.56-1.59-.85-2.86-.85-.88,0-1.75.14-2.6.42-.85.28-1.58.65-2.17,1.12l-1.73-3.36c.9-.64,1.99-1.13,3.25-1.48,1.26-.35,2.56-.52,3.9-.52,2.57,0,4.54.61,5.91,1.83ZM218.55,24.22c.64-.38,1.09-.94,1.36-1.68v-1.69h-3.3c-1.97,0-2.96.65-2.96,1.94,0,.62.24,1.1.72,1.46.48.36,1.14.54,1.99.54s1.55-.19,2.19-.57Z"/>
  </g>
  <g>
    <path class="st4" d="M43.04,13.3c-3.97-3.97-9.25-6.16-14.86-6.16s-10.89,2.19-14.86,6.16-6.16,9.25-6.16,14.86,2.19,10.89,6.16,14.86,9.25,6.16,14.86,6.16,10.89-2.19,14.86-6.16c3.97-3.97,6.16-9.25,6.16-14.86s-2.19-10.89-6.16-14.86Z"/>
    <path class="st0" d="M28.18,6.32c-12.06,0-21.84,9.78-21.84,21.84s9.78,21.84,21.84,21.84,21.84-9.78,21.84-21.84S40.24,6.32,28.18,6.32ZM28.18,49.18c-5.61,0-10.89-2.19-14.86-6.16s-6.16-9.25-6.16-14.86,2.19-10.89,6.16-14.86,9.25-6.16,14.86-6.16,10.89,2.19,14.86,6.16c3.97,3.97,6.16,9.25,6.16,14.86s-2.19,10.89-6.16,14.86c-3.97,3.97-9.25,6.16-14.86,6.16Z"/>
    <g>
      <path class="st2" d="M17.06,19.18c-.03-.12-.56-.57-.63-.48-.22,2.87-1.2,5.73-.32,8.59l-5.11-.77c-.95-.6.18-7.3.7-8.57,2.34-5.68,6.32.31,7.11.12,1.71-3.79,6.6-3.99,8.62-.33,4.09,7.39-2.72,13.09-1.74,20.19.68,4.93,7.84,6.22,10.64,2.43,1.27-1.72.72-3.77.62-5.74,9.16,10.58-12.94,16.63-14.16,4.61-.73-7.15,4.58-12.92,4.74-19.85-5.51-2.35-5.61,2.29-6.66,6.32l-3.81-.94c-.26-1.53.35-4.22,0-5.57Z"/>
      <path class="st2" d="M37.67,25.78c1.17,1.18,1.23,8.21,2.31,10.1,3.03-.67.71-6.18,1.88-7.77l.98-.19c-.14,1.72.43,3.16.28,4.9-.12,1.41-.97,6.29-3.15,5.14-1.45-.76-1.9-9.16-2.54-10.99-.9-.65-1.22,2.47-1.27,3.02-.16,2.01.79,4.86-1.27,5.88-.3-1.97-.65-9.38,1.27-10.36.42-.23,1.19-.06,1.51.26Z"/>
      <path class="st2" d="M32.98,37.79c-1.32-3.72-1.93-7.52-.28-11.25.37-.84.93-1.88,1.86-2.11.88,2.17-.76,3.96-.96,6.19-.08.84-.04,2.01.02,2.87.08,1.35,1.41,3.85-.64,4.3Z"/>
      <path class="st2" d="M44.1,37.79l-.64-.18c-.7-1.3.23-2.47.33-3.8.08-1.16.12-2.98-.02-4.11-.25-1.91-2.36-3.86-.77-5.27,3.32,3.43,3.54,9.35,1.11,13.35Z"/>
    </g>
    <g>
      <path class="st3" d="M.94,32.47l1.29-.18-.21-1.52.59-.08.21,1.52,1.35-.19-.24-1.71.59-.08.34,2.43-4.4.62-.34-2.43.59-.08.24,1.71Z"/>
      <path class="st3" d="M.62,28.82l1.3-.02-.02-1.53h.59s.02,1.52.02,1.52l1.36-.02-.03-1.72h.59s.04,2.44.04,2.44l-4.45.07-.04-2.45h.59s.03,1.72.03,1.72Z"/>
      <path class="st3" d="M4.48,25.61c-.14.22-.31.39-.52.5-.21.11-.44.14-.69.11l.11-.77c.19,0,.36-.04.5-.16.14-.12.23-.29.26-.53.03-.25,0-.45-.1-.61s-.25-.25-.44-.27c-.15-.02-.27,0-.38.08-.1.07-.19.17-.26.29-.07.12-.15.29-.24.51-.12.28-.23.5-.33.67-.1.17-.25.3-.43.41-.18.1-.41.14-.68.1-.25-.04-.47-.13-.64-.28-.17-.15-.29-.35-.36-.59-.07-.24-.08-.51-.04-.81.06-.43.22-.76.47-1,.25-.24.56-.35.94-.33l-.11.8c-.16,0-.31.05-.44.17-.13.12-.22.3-.25.53-.03.21,0,.38.09.53.09.15.23.23.43.26.14.02.25,0,.35-.08.1-.07.18-.16.25-.28s.15-.28.24-.5c.12-.28.23-.51.34-.68.11-.17.25-.31.44-.42.18-.11.42-.14.69-.1.22.03.43.12.61.27.18.15.32.35.4.59.09.25.11.53.07.84-.04.3-.13.55-.27.78Z"/>
      <path class="st3" d="M4.99,19.81l-.56,1.77.77.58-.23.72-3.76-2.86.26-.8,4.72-.17-.23.73-.96.03ZM4.37,19.82l-2.19.06,1.75,1.32.44-1.38Z"/>
      <path class="st3" d="M4.28,13.13l3.14,3.55-.4.74-4.71-.6.37-.69,3.88.57-2.64-2.9.36-.68Z"/>
      <path class="st3" d="M9.4,12.21l-1.15,1.46.52.81-.47.6-2.51-4,.52-.66,4.48,1.5-.47.6-.91-.31ZM8.81,12l-2.07-.71,1.17,1.85.9-1.14Z"/>
      <path class="st3" d="M11.58,11.05c-.25.08-.49.1-.71.05-.23-.05-.43-.17-.6-.36l.58-.52c.14.13.3.2.49.2s.36-.08.54-.24c.19-.17.29-.35.31-.53.02-.18-.03-.35-.16-.49-.1-.11-.21-.17-.34-.18-.13-.01-.26,0-.39.06-.13.05-.3.13-.51.24-.27.14-.49.24-.68.3-.19.06-.38.08-.59.04-.21-.04-.4-.16-.59-.36-.17-.19-.27-.4-.31-.63-.03-.23,0-.46.1-.69.1-.23.26-.45.49-.65.32-.29.65-.45,1-.47.35-.03.66.09.93.35l-.6.54c-.12-.11-.27-.16-.45-.15-.18,0-.36.09-.53.25-.15.14-.24.29-.27.46-.03.17.03.33.16.47.09.1.2.16.32.16.12,0,.24-.01.37-.06.13-.05.3-.12.5-.23.27-.14.5-.24.7-.3.19-.06.39-.08.6-.04.21.04.41.16.6.37.15.17.25.37.29.6.04.23.02.47-.07.71-.09.25-.25.47-.49.69-.22.2-.45.34-.7.43Z"/>
      <path class="st3" d="M14.26,3.62l.33,3.17.89,1.35-.61.4-.89-1.35-2.79-1.55.68-.45,2.06,1.25-.34-2.39.67-.44Z"/>
      <path class="st3" d="M19.14,5.23l-1.7.75.07.96-.7.31-.33-4.71.77-.34,3.24,3.43-.7.31-.66-.7ZM18.72,4.77l-1.49-1.6.16,2.18,1.33-.58Z"/>
      <path class="st3" d="M24.6.13l.92,4.34-.71.15-.63-2.98-.69,3.26-.49.1-1.96-2.69.63,2.98-.71.15-.92-4.34.77-.16,2.25,3.08.8-3.73.76-.16Z"/>
      <path class="st3" d="M28.72.01l-.07,4.44h-.73s.07-4.45.07-4.45h.73Z"/>
      <path class="st3" d="M32.69.63c.33.23.57.52.72.88.15.36.19.77.14,1.21-.06.45-.2.82-.44,1.13-.24.3-.54.52-.92.65-.38.13-.8.16-1.27.1l-1.44-.19L30.06.01l1.44.19c.47.06.87.2,1.2.43ZM32.24,3.75c.31-.24.5-.62.56-1.13.07-.51-.02-.93-.26-1.25-.24-.32-.61-.52-1.13-.58l-.72-.09-.42,3.23.72.09c.52.07.93-.02,1.24-.26Z"/>
      <path class="st3" d="M36.61,5l-1.77-.57-.58.77-.72-.23,2.88-3.75.8.26.15,4.72-.73-.23-.03-.96ZM36.6,4.37l-.06-2.19-1.33,1.74,1.38.44Z"/>
      <path class="st3" d="M44.08,4.8l-2.19,3.86-.63-.36,1.5-2.65-2.68,1.98-.44-.25.32-3.32-1.5,2.65-.63-.36,2.19-3.86.68.39-.36,3.8,3.07-2.26.68.38Z"/>
      <path class="st3" d="M44.26,10.55c-.1-.24-.13-.48-.09-.71.04-.23.14-.44.32-.62l.56.54c-.12.15-.18.31-.17.5,0,.18.1.36.28.53.18.18.36.27.55.28.19.01.35-.05.48-.19.1-.11.16-.22.16-.35,0-.13-.02-.26-.08-.38-.06-.13-.15-.29-.27-.5-.15-.26-.27-.48-.34-.66-.07-.18-.1-.38-.07-.59.02-.21.13-.41.33-.61.18-.18.38-.3.61-.35s.46-.03.69.06c.24.09.46.24.68.45.31.3.49.62.53.97.05.35-.05.66-.29.95l-.58-.56c.1-.12.15-.28.13-.46-.02-.18-.11-.35-.28-.51-.15-.15-.31-.23-.48-.24-.17-.02-.32.05-.46.19-.1.1-.14.21-.15.33,0,.12.03.24.08.37.06.13.14.29.26.48.15.26.27.49.34.68s.1.39.08.6c-.02.21-.13.42-.33.62-.16.16-.35.27-.58.33-.23.06-.47.05-.72-.03-.25-.08-.49-.22-.71-.44-.21-.21-.37-.43-.47-.67Z"/>
      <path class="st3" d="M48.63,14.4l-1.1-1.5-.92.28-.45-.61,4.53-1.34.5.68-2.65,3.91-.45-.62.54-.79ZM48.99,13.89l1.24-1.8-2.1.63.86,1.17Z"/>
      <path class="st3" d="M49.79,18.34l1.14-1.7-.25-.5-1.59.79-.32-.65,3.98-1.97.68,1.37c.15.31.23.59.22.86,0,.26-.07.49-.19.69-.13.19-.3.35-.52.46-.26.13-.53.17-.82.12-.29-.05-.55-.21-.78-.48l-1.16,1.8-.39-.78ZM51.2,15.88l.36.72c.12.24.27.4.46.46.18.06.38.04.58-.06s.34-.24.39-.42c.06-.18.02-.39-.1-.64l-.36-.72-1.33.66Z"/>
      <path class="st3" d="M55.78,22.17l-4.73-.34-.24-.81,3.78-2.87.22.75-3.17,2.31,3.92.22.22.74Z"/>
      <path class="st3" d="M52.76,26.41l-.2-1.85-.94-.22-.08-.76,4.59,1.1.09.84-4.25,2.06-.08-.76.87-.42ZM53.33,26.14l1.97-.94-2.13-.5.16,1.44Z"/>
      <path class="st3" d="M56,33.15l-4.42-.41.07-.73,3.03.28-2.9-1.63.05-.5,3.16-1.07-3.03-.28.07-.73,4.42.41-.07.78-3.61,1.23,3.32,1.87-.07.78Z"/>
    </g>
  </g>
  <g>
    <path class="st1" d="M65.99,36.98h-2.9v-1.05h7.01v1.05h-2.9v7.42h-1.2v-7.42Z"/>
    <path class="st1" d="M83.24,43.34v1.05h-6.15v-8.47h5.98v1.05h-4.77v2.6h4.25v1.03h-4.25v2.74h4.94Z"/>
    <path class="st1" d="M92.37,43.93c-.68-.38-1.22-.89-1.6-1.55s-.58-1.4-.58-2.22.19-1.56.58-2.22.92-1.17,1.61-1.55c.69-.38,1.45-.56,2.3-.56.66,0,1.27.11,1.82.33.55.22,1.02.55,1.4.99l-.79.76c-.64-.67-1.43-1-2.38-1-.63,0-1.2.14-1.71.42-.51.28-.91.67-1.19,1.17-.29.5-.43,1.05-.43,1.66s.14,1.17.43,1.66c.29.5.68.89,1.19,1.17.51.28,1.08.42,1.71.42.94,0,1.74-.34,2.38-1.02l.79.76c-.39.44-.86.77-1.41.99-.55.23-1.16.34-1.82.34-.85,0-1.61-.19-2.29-.56Z"/>
    <path class="st1" d="M112.59,35.93v8.47h-1.21v-3.78h-4.87v3.78h-1.21v-8.47h1.21v3.64h4.87v-3.64h1.21Z"/>
    <path class="st1" d="M128.09,35.93v8.47h-.99l-5.08-6.32v6.32h-1.21v-8.47h.99l5.08,6.32v-6.32h1.21Z"/>
    <path class="st1" d="M137.82,43.93c-.69-.38-1.22-.89-1.62-1.56-.39-.66-.59-1.4-.59-2.22s.2-1.55.59-2.21c.39-.66.93-1.18,1.62-1.56.69-.38,1.46-.56,2.31-.56s1.61.19,2.3.56c.69.38,1.22.89,1.61,1.55s.58,1.4.58,2.22-.19,1.56-.58,2.22-.92,1.17-1.61,1.55c-.69.38-1.45.56-2.3.56s-1.63-.19-2.31-.56ZM141.81,42.99c.5-.28.89-.67,1.17-1.17.29-.5.43-1.05.43-1.66s-.14-1.17-.43-1.66c-.29-.5-.68-.89-1.17-1.17-.5-.28-1.05-.42-1.68-.42s-1.18.14-1.69.42c-.5.28-.9.67-1.19,1.17-.29.5-.43,1.05-.43,1.66s.14,1.17.43,1.66c.29.5.68.89,1.19,1.17.5.28,1.07.42,1.69.42s1.18-.14,1.68-.42Z"/>
    <path class="st1" d="M152.16,35.93h1.21v7.42h4.59v1.05h-5.8v-8.47Z"/>
    <path class="st1" d="M166.53,43.93c-.69-.38-1.22-.89-1.62-1.56-.39-.66-.59-1.4-.59-2.22s.2-1.55.59-2.21c.39-.66.93-1.18,1.62-1.56s1.46-.56,2.31-.56,1.61.19,2.3.56,1.22.89,1.61,1.55.58,1.4.58,2.22-.19,1.56-.58,2.22-.92,1.17-1.61,1.55-1.45.56-2.3.56-1.63-.19-2.31-.56ZM170.52,42.99c.5-.28.89-.67,1.17-1.17.29-.5.43-1.05.43-1.66s-.14-1.17-.43-1.66c-.29-.5-.68-.89-1.17-1.17-.5-.28-1.05-.42-1.68-.42s-1.18.14-1.69.42c-.5.28-.9.67-1.19,1.17-.29.5-.43,1.05-.43,1.66s.14,1.17.43,1.66c.29.5.68.89,1.19,1.17.5.28,1.07.42,1.69.42s1.18-.14,1.68-.42Z"/>
    <path class="st1" d="M186.73,40.11h1.16v3.3c-.42.35-.91.61-1.46.8s-1.14.28-1.74.28c-.86,0-1.63-.19-2.31-.56s-1.22-.89-1.62-1.55c-.39-.66-.59-1.4-.59-2.22s.2-1.57.59-2.23c.39-.66.93-1.18,1.62-1.55.69-.37,1.47-.56,2.33-.56.68,0,1.29.11,1.85.33.55.22,1.02.55,1.41.97l-.75.75c-.68-.65-1.5-.98-2.46-.98-.65,0-1.22.14-1.74.42-.51.28-.91.67-1.2,1.16-.29.5-.44,1.06-.44,1.68s.15,1.17.44,1.66c.29.5.69.89,1.2,1.17.51.28,1.09.42,1.72.42.76,0,1.42-.18,1.98-.54v-2.76Z"/>
    <path class="st1" d="M195.88,35.93h1.21v8.47h-1.21v-8.47Z"/>
    <path class="st1" d="M211.46,43.34v1.05h-6.15v-8.47h5.98v1.05h-4.77v2.6h4.25v1.03h-4.25v2.74h4.94Z"/>
    <path class="st1" d="M219.72,44.2c-.59-.2-1.06-.45-1.4-.77l.45-.94c.32.29.74.53,1.24.71s1.02.27,1.56.27c.7,0,1.23-.12,1.57-.36.35-.24.52-.55.52-.95,0-.29-.09-.53-.28-.71-.19-.18-.42-.32-.7-.42-.28-.1-.67-.21-1.18-.33-.64-.15-1.15-.31-1.54-.46-.39-.15-.73-.39-1-.71-.28-.32-.42-.75-.42-1.29,0-.45.12-.86.36-1.22s.6-.65,1.08-.87c.48-.22,1.08-.33,1.8-.33.5,0,.99.06,1.48.19.48.13.9.31,1.25.56l-.4.97c-.36-.23-.73-.4-1.14-.51-.4-.12-.8-.18-1.19-.18-.69,0-1.2.13-1.54.38s-.51.57-.51.97c0,.29.1.53.29.71.19.18.43.32.72.42.29.1.68.21,1.17.32.64.15,1.15.31,1.54.46s.72.39,1,.7c.28.31.42.74.42,1.27,0,.44-.12.85-.36,1.22-.24.37-.61.66-1.1.87-.49.21-1.1.32-1.82.32-.64,0-1.25-.1-1.85-.3Z"/>
  </g>
</svg>