<?xml version="1.0" encoding="UTF-8"?>
<svg id="Layer_1" xmlns="http://www.w3.org/2000/svg" version="1.1" viewBox="0 0 1440 320">
  <!-- Generator: Adobe Illustrator 29.3.1, SVG Export Plug-In . SVG Version: 2.1.0 Build 151)  -->
  <defs>
    <style>
      .st0 {
        fill: #a3cd49;
      }

      .st1 {
        fill: #f7f7f7;
      }
    </style>
  </defs>
  <path class="st0" d="M0,160l48-21.3c48-21.7,144-63.7,240-80,96-15.7,192-5.7,288,21.3,96,27,192,69,288,112s192,85,288,74.7c96-10.7,192-74.7,240-106.7l48-32v192H0v-160Z"/>
  <path class="st1" d="M0,160l48.6-19.8c48.6-20.2,145.9-59.3,242.3-72.6,96.4-12.8,192.1.2,287.2,30.1,95.1,29.9,189.8,74.8,284.4,120.7,94.6,45.9,189.3,90.8,285.6,83.5,96.3-7.8,194.2-68.8,243.1-99.3l49-30.5-.3,148H0v-160Z"/>
</svg>